<svg
    id="visual"
    viewBox="0 0 900 200"
    width="900"
    height="200"
    xmlns="http://www.w3.org/2000/svg"
    xmlns:xlink="http://www.w3.org/1999/xlink"
    version="1.1"
  >
    <path
      id="wave1"
      d="M0 114L21.5 112.3C43 110.7 86 107.3 128.8 101.2C171.7 95 214.3 86 257.2 80C300 74 343 71 385.8 77.5C428.7 84 471.3 100 514.2 102.2C557 104.3 600 92.7 642.8 86.5C685.7 80.3 728.3 79.7 771.2 82C814 84.3 857 89.7 878.5 92.3L900 95L900 201L878.5 201C857 201 814 201 771.2 201C728.3 201 685.7 201 642.8 201C600 201 557 201 514.2 201C471.3 201 428.7 201 385.8 201C343 201 300 201 257.2 201C214.3 201 171.7 201 128.8 201C86 201 43 201 21.5 201L0 201Z"
    ></path>
    <path
      id="wave2"
      d="M0 120L21.5 118.2C43 116.3 86 112.7 128.8 110.3C171.7 108 214.3 107 257.2 104.2C300 101.3 343 96.7 385.8 100.8C428.7 105 471.3 118 514.2 118.8C557 119.7 600 108.3 642.8 106.5C685.7 104.7 728.3 112.3 771.2 111.7C814 111 857 102 878.5 97.5L900 93L900 201L878.5 201C857 201 814 201 771.2 201C728.3 201 685.7 201 642.8 201C600 201 557 201 514.2 201C471.3 201 428.7 201 385.8 201C343 201 300 201 257.2 201C214.3 201 171.7 201 128.8 201C86 201 43 201 21.5 201L0 201Z"
    ></path>
    <path
      id="wave3"
      d="M0 139L21.5 137.7C43 136.3 86 133.7 128.8 135.3C171.7 137 214.3 143 257.2 143.8C300 144.7 343 140.3 385.8 135.3C428.7 130.3 471.3 124.7 514.2 124.7C557 124.7 600 130.3 642.8 131C685.7 131.7 728.3 127.3 771.2 126.5C814 125.7 857 128.3 878.5 129.7L900 131L900 201L878.5 201C857 201 814 201 771.2 201C728.3 201 685.7 201 642.8 201C600 201 557 201 514.2 201C471.3 201 428.7 201 385.8 201C343 201 300 201 257.2 201C214.3 201 171.7 201 128.8 201C86 201 43 201 21.5 201L0 201Z"
    ></path>
    <path
      id="wave4"
      d="M0 138L21.5 139.8C43 141.7 86 145.3 128.8 149.3C171.7 153.3 214.3 157.7 257.2 155.8C300 154 343 146 385.8 145C428.7 144 471.3 150 514.2 154.5C557 159 600 162 642.8 163.2C685.7 164.3 728.3 163.7 771.2 160C814 156.3 857 149.7 878.5 146.3L900 143L900 201L878.5 201C857 201 814 201 771.2 201C728.3 201 685.7 201 642.8 201C600 201 557 201 514.2 201C471.3 201 428.7 201 385.8 201C343 201 300 201 257.2 201C214.3 201 171.7 201 128.8 201C86 201 43 201 21.5 201L0 201Z"
    ></path>
    <path
      id="wave5"
      d="M0 179L21.5 177.8C43 176.7 86 174.3 128.8 174.5C171.7 174.7 214.3 177.3 257.2 176C300 174.7 343 169.3 385.8 167.2C428.7 165 471.3 166 514.2 168.7C557 171.3 600 175.7 642.8 177.2C685.7 178.7 728.3 177.3 771.2 176.8C814 176.3 857 176.7 878.5 176.8L900 177L900 201L878.5 201C857 201 814 201 771.2 201C728.3 201 685.7 201 642.8 201C600 201 557 201 514.2 201C471.3 201 428.7 201 385.8 201C343 201 300 201 257.2 201C214.3 201 171.7 201 128.8 201C86 201 43 201 21.5 201L0 201Z"
    ></path>
  </svg>